# xmcd
#
# Track frame offsets:
#	150
#	20107
#	35888
#	48337
#	64838
#	78998
#
# Disc length: 1216 seconds
#
# Revision: 1
# Processed by: cddbd v1.5.2PL0 Copyright (c) Steve Scherf et al.
# Submitted via: audiograbber 1.83.01
#
DISCID=4e04be06
DTITLE=Rubin714 - Stereo EP
DYEAR=2012
DGENRE=Alternative Rock
TTITLE0=Guten Morgen Freemen
TTITLE1=Totentanz Simulator
TTITLE2=Drugstore Rhyme
TTITLE3=F44.1
TTITLE4=How's Annie?
TTITLE5=Cowboy
EXTD=
EXTT0=
EXTT1=
EXTT2=
EXTT3=
EXTT4=
EXTT5=
PLAYORDER=
